<svg width="300" height="65" viewBox="0 0 300 65" fill="none" xmlns="http://www.w3.org/2000/svg">
<g clip-path="url(#clip0_264_1266)">
<path fill-rule="evenodd" clip-rule="evenodd" d="M49.9086 25.7489C42.114 29.1454 49.5943 39.6037 35.4163 42.1634C30.3805 43.0725 26.8845 43.8752 27.3233 49.8314C27.6579 54.4126 32.1353 57.5038 36.9788 55.2335C44.0926 51.9005 37.1756 40.0672 51.1817 38.7014C64.9686 37.3583 58.8157 21.8686 49.9086 25.7489Z" fill="#5CE1E6"/>
<path fill-rule="evenodd" clip-rule="evenodd" d="M30.4412 7.69499C23.723 12.0773 31.0178 21.2332 15.5238 23.7703C2.7024 25.871 9.93617 41.424 18.7686 36.3676C25.5298 32.4941 18.0676 21.7058 33.5844 20.055C46.01 18.7321 39.6943 1.66196 30.4412 7.69499Z" fill="#585797"/>
<path fill-rule="evenodd" clip-rule="evenodd" d="M32.205 25.4391C23.3115 27.7682 27.3253 41.0303 36.0266 38.206C43.7692 35.6893 41.103 23.11 32.205 25.4391Z" fill="#FEFEFE"/>
<path d="M84.215 45.0585C81.6057 45.0585 79.3657 44.5046 77.495 43.3969C75.6242 42.2646 74.1842 40.7015 73.175 38.7077C72.1657 36.6892 71.6611 34.3631 71.6611 31.7292C71.6611 29.0954 72.1657 26.7692 73.175 24.7508C74.1842 22.7323 75.6242 21.1569 77.495 20.0246C79.3657 18.8923 81.6057 18.3261 84.215 18.3261C87.3165 18.3261 89.8519 19.1015 91.8211 20.6523C93.815 22.1785 95.0581 24.3323 95.5504 27.1138H90.3442C90.0242 25.7108 89.335 24.6154 88.2765 23.8277C87.2427 23.0154 85.8642 22.6092 84.1411 22.6092C81.7534 22.6092 79.8827 23.4215 78.5288 25.0461C77.175 26.6708 76.4981 28.8985 76.4981 31.7292C76.4981 34.56 77.175 36.7877 78.5288 38.4123C79.8827 40.0123 81.7534 40.8123 84.1411 40.8123C85.8642 40.8123 87.2427 40.4431 88.2765 39.7046C89.335 38.9415 90.0242 37.8954 90.3442 36.5661H95.5504C95.0581 39.2246 93.815 41.3046 91.8211 42.8061C89.8519 44.3077 87.3165 45.0585 84.215 45.0585ZM98.9954 44.6154V18.7692H108.485C110.552 18.7692 112.251 19.1261 113.58 19.84C114.934 20.5292 115.943 21.4769 116.608 22.6831C117.272 23.8646 117.605 25.1815 117.605 26.6338C117.605 28.2092 117.186 29.6492 116.349 30.9538C115.537 32.2585 114.257 33.2061 112.509 33.7969L117.863 44.6154H112.435L107.635 34.4246H103.722V44.6154H98.9954ZM103.722 30.9538H108.189C109.765 30.9538 110.922 30.5723 111.66 29.8092C112.399 29.0461 112.768 28.0369 112.768 26.7815C112.768 25.5508 112.399 24.5661 111.66 23.8277C110.946 23.0892 109.777 22.72 108.152 22.72H103.722V30.9538ZM121.262 44.6154V18.7692H130.086C133.114 18.7692 135.6 19.3108 137.545 20.3938C139.514 21.4523 140.966 22.9538 141.902 24.8985C142.862 26.8185 143.342 29.0831 143.342 31.6923C143.342 34.3015 142.862 36.5785 141.902 38.5231C140.966 40.4431 139.514 41.9446 137.545 43.0277C135.6 44.0861 133.114 44.6154 130.086 44.6154H121.262ZM125.988 40.5538H129.865C132.031 40.5538 133.742 40.2092 134.997 39.52C136.253 38.8061 137.151 37.7969 137.693 36.4923C138.234 35.1631 138.505 33.5631 138.505 31.6923C138.505 29.8461 138.234 28.2585 137.693 26.9292C137.151 25.6 136.253 24.5785 134.997 23.8646C133.742 23.1508 132.031 22.7938 129.865 22.7938H125.988V40.5538ZM154.833 44.6154V18.7692H159.56L171.707 36.9723V18.7692H176.433V44.6154H171.707L159.56 26.4492V44.6154H154.833ZM189.493 45.0585C187.647 45.0585 186.01 44.6646 184.583 43.8769C183.155 43.0892 182.035 41.9815 181.223 40.5538C180.41 39.1261 180.004 37.4769 180.004 35.6061C180.004 33.7108 180.398 32.0246 181.186 30.5477C181.998 29.0708 183.106 27.9261 184.509 27.1138C185.937 26.2769 187.61 25.8585 189.53 25.8585C191.327 25.8585 192.915 26.2523 194.293 27.04C195.672 27.8277 196.743 28.9108 197.506 30.2892C198.293 31.6431 198.687 33.1569 198.687 34.8308C198.687 35.1015 198.675 35.3846 198.65 35.68C198.65 35.9754 198.638 36.2831 198.613 36.6031H184.693C184.792 38.0308 185.284 39.1508 186.17 39.9631C187.081 40.7754 188.177 41.1815 189.457 41.1815C190.417 41.1815 191.217 40.9723 191.857 40.5538C192.521 40.1108 193.013 39.5446 193.333 38.8554H198.133C197.789 40.0123 197.21 41.0708 196.398 42.0308C195.61 42.9661 194.626 43.7046 193.444 44.2461C192.287 44.7877 190.97 45.0585 189.493 45.0585ZM189.53 29.6985C188.373 29.6985 187.352 30.0308 186.466 30.6954C185.58 31.3354 185.013 32.32 184.767 33.6492H193.887C193.813 32.4431 193.37 31.4831 192.558 30.7692C191.746 30.0554 190.737 29.6985 189.53 29.6985ZM209.758 44.6154C207.838 44.6154 206.3 44.1477 205.143 43.2123C203.986 42.2769 203.407 40.6154 203.407 38.2277V30.2523H200.269V26.3015H203.407L203.961 21.3908H208.133V26.3015H213.081V30.2523H208.133V38.2646C208.133 39.1508 208.318 39.7661 208.687 40.1108C209.081 40.4308 209.746 40.5908 210.681 40.5908H212.97V44.6154H209.758ZM219.983 44.6154L214.629 26.3015H219.318L222.493 39.4831L226.186 26.3015H231.429L235.121 39.4831L238.333 26.3015H243.023L237.632 44.6154H232.721L228.807 30.9169L224.893 44.6154H219.983ZM253.404 45.0585C251.632 45.0585 250.032 44.6523 248.604 43.84C247.201 43.0277 246.081 41.9077 245.244 40.48C244.432 39.0277 244.026 37.3538 244.026 35.4585C244.026 33.5631 244.444 31.9015 245.281 30.4738C246.118 29.0215 247.238 27.8892 248.641 27.0769C250.069 26.2646 251.669 25.8585 253.441 25.8585C255.189 25.8585 256.764 26.2646 258.167 27.0769C259.595 27.8892 260.715 29.0215 261.527 30.4738C262.364 31.9015 262.783 33.5631 262.783 35.4585C262.783 37.3538 262.364 39.0277 261.527 40.48C260.715 41.9077 259.595 43.0277 258.167 43.84C256.74 44.6523 255.152 45.0585 253.404 45.0585ZM253.404 40.96C254.635 40.96 255.706 40.5046 256.617 39.5938C257.527 38.6585 257.983 37.28 257.983 35.4585C257.983 33.6369 257.527 32.2708 256.617 31.36C255.706 30.4246 254.647 29.9569 253.441 29.9569C252.186 29.9569 251.103 30.4246 250.192 31.36C249.306 32.2708 248.863 33.6369 248.863 35.4585C248.863 37.28 249.306 38.6585 250.192 39.5938C251.103 40.5046 252.173 40.96 253.404 40.96ZM266.27 44.6154V26.3015H270.48L270.923 29.7354C271.587 28.5538 272.486 27.6185 273.618 26.9292C274.775 26.2154 276.129 25.8585 277.68 25.8585V30.8431H276.35C275.317 30.8431 274.393 31.0031 273.581 31.3231C272.769 31.6431 272.129 32.1969 271.661 32.9846C271.218 33.7723 270.997 34.8677 270.997 36.2708V44.6154H266.27ZM280.172 44.6154V18.0308H284.898V33.7231L291.397 26.3015H297.009L289.513 34.6461L298.227 44.6154H292.32L284.898 35.4215V44.6154H280.172Z" fill="#585797"/>
<path d="M180.408 22.87L163.328 5.78999H106.078L86.9176 -13.36H69.4176L55.3876 0.669988H0.267578V0.339988H55.2476L69.2776 -13.7H87.0576L106.218 5.44999H163.468L180.648 22.63L180.408 22.87Z" fill="#900DEF"/>
<path d="M0.328049 1.78C0.0749002 1.78197 -0.173149 1.70882 -0.384731 1.56982C-0.596312 1.43082 -0.761924 1.2322 -0.860624 0.999074C-0.959323 0.76595 -0.986678 0.508791 -0.939229 0.260121C-0.89178 0.0114506 -0.771658 -0.217566 -0.594053 -0.397968C-0.416448 -0.57837 -0.189339 -0.702054 0.05856 -0.753383C0.306459 -0.804712 0.564012 -0.781373 0.798649 -0.686328C1.03329 -0.591283 1.23447 -0.428801 1.37676 -0.219417C1.51905 -0.0100332 1.59606 0.236846 1.59805 0.489995C1.59936 0.656775 1.56782 0.822177 1.50521 0.976765C1.4426 1.13135 1.35016 1.2721 1.23315 1.39096C1.11615 1.50982 0.976883 1.60447 0.8233 1.66951C0.669717 1.73454 0.504828 1.76869 0.338048 1.76999L0.328049 1.78Z" fill="#900DEF"/>
<path d="M179.588 23.6C179.766 23.777 179.992 23.8974 180.238 23.946C180.484 23.9945 180.739 23.9691 180.971 23.8728C181.203 23.7765 181.401 23.6137 181.54 23.405C181.68 23.1963 181.754 22.9509 181.754 22.7C181.754 22.449 181.68 22.2037 181.54 21.995C181.401 21.7863 181.203 21.6235 180.971 21.5272C180.739 21.4309 180.484 21.4054 180.238 21.454C179.992 21.5025 179.766 21.6229 179.588 21.8C179.352 22.0362 179.22 22.3563 179.22 22.69C179.22 23.0237 179.352 23.3438 179.588 23.58V23.6Z" fill="#900DEF"/>
<path d="M132.168 90.09H107.288L78.4677 61.26H19.0077L4.66773 75.6L4.42773 75.36L18.8677 60.92H78.6077L107.428 89.75H132.028L146.168 75.61H171.668V75.95H146.308L132.168 90.09Z" fill="#900DEF"/>
<path d="M180.408 33.03L162.088 14.71H110.468L93.1684 -2.59002H64.4784L49.5184 12.38H-12.5516L-30.8916 -5.97002L-30.6616 -6.21002L-12.4116 12.04H49.3784L64.3384 -2.92002H93.3084L110.608 14.37H162.228L180.648 32.79L180.408 33.03Z" fill="#900DEF"/>
<path d="M181.378 31.97C181.555 32.1479 181.675 32.3742 181.724 32.6204C181.773 32.8666 181.747 33.1216 181.651 33.3534C181.555 33.5851 181.392 33.7831 181.183 33.9224C180.974 34.0617 180.729 34.1361 180.478 34.1361C180.227 34.1361 179.982 34.0617 179.773 33.9224C179.564 33.7831 179.402 33.5851 179.305 33.3534C179.209 33.1216 179.183 32.8666 179.232 32.6204C179.281 32.3742 179.401 32.1479 179.578 31.97C179.814 31.7343 180.134 31.6019 180.468 31.6019C180.802 31.6019 181.122 31.7343 181.358 31.97H181.378Z" fill="#900DEF"/>
<path d="M172.718 36.6L157.838 21.72H111.568L93.5179 3.66001H65.5779L42.8279 26.41L42.5879 26.17L65.4379 3.32001H93.6579L111.708 21.38H157.978L172.958 36.36L172.718 36.6Z" fill="#900DEF"/>
<path d="M173.697 35.54C173.884 35.7137 174.014 35.9397 174.071 36.1884C174.127 36.4372 174.108 36.6972 174.014 36.9346C173.921 37.172 173.758 37.3758 173.548 37.5194C173.337 37.663 173.088 37.7399 172.833 37.7399C172.577 37.7399 172.328 37.663 172.117 37.5194C171.907 37.3758 171.744 37.172 171.651 36.9346C171.557 36.6972 171.538 36.4372 171.594 36.1884C171.651 35.9397 171.781 35.7137 171.967 35.54C172.201 35.3192 172.511 35.1962 172.833 35.1962C173.154 35.1962 173.464 35.3192 173.697 35.54Z" fill="#900DEF"/>
<path d="M42.7583 27.51C43.4597 27.51 44.0283 26.9414 44.0283 26.24C44.0283 25.5386 43.4597 24.97 42.7583 24.97C42.0569 24.97 41.4883 25.5386 41.4883 26.24C41.4883 26.9414 42.0569 27.51 42.7583 27.51Z" fill="#900DEF"/>
<path d="M122.418 81.44H105.088L72.0782 48.43H-15.5518V48.09H72.2182L105.228 81.1H122.278L134.628 68.74H168.128L182.608 54.27L182.848 54.51L168.278 69.08H134.778L122.418 81.44Z" fill="#900DEF"/>
<path d="M181.768 53.53C182.009 53.2954 182.332 53.1642 182.668 53.1642C183.004 53.1642 183.327 53.2954 183.568 53.53C183.807 53.7687 183.941 54.0924 183.941 54.43C183.941 54.7676 183.807 55.0913 183.568 55.33C183.329 55.5687 183.006 55.7028 182.668 55.7028C182.331 55.7028 182.007 55.5687 181.768 55.33C181.534 55.0892 181.402 54.7662 181.402 54.43C181.402 54.0938 181.534 53.7709 181.768 53.53Z" fill="#900DEF"/>
<path d="M105.938 41.9H94.168V41.56H105.798L116.508 30.85H156.558V31.19H116.648L105.938 41.9Z" fill="#900DEF"/>
<path d="M156.499 29.75C156.75 29.75 156.995 29.8245 157.204 29.964C157.413 30.1036 157.576 30.3019 157.672 30.534C157.768 30.7661 157.793 31.0214 157.744 31.2678C157.695 31.5141 157.574 31.7404 157.397 31.918C157.219 32.0956 156.993 32.2166 156.746 32.2656C156.5 32.3146 156.245 32.2894 156.013 32.1933C155.78 32.0972 155.582 31.9344 155.443 31.7256C155.303 31.5167 155.229 31.2712 155.229 31.02C155.229 30.6832 155.362 30.3601 155.6 30.122C155.839 29.8838 156.162 29.75 156.499 29.75Z" fill="#900DEF"/>
<path d="M94.2378 43C94.9392 43 95.5078 42.4314 95.5078 41.73C95.5078 41.0286 94.9392 40.46 94.2378 40.46C93.5364 40.46 92.9678 41.0286 92.9678 41.73C92.9678 42.4314 93.5364 43 94.2378 43Z" fill="#900DEF"/>
<path d="M105.168 31.38L88.7784 14.99H65.0684V14.65H88.9184L105.408 31.14L105.168 31.38Z" fill="#900DEF"/>
<path d="M106.149 30.32C106.326 30.4978 106.446 30.7241 106.495 30.9703C106.543 31.2165 106.518 31.4716 106.421 31.7033C106.325 31.9351 106.162 32.1331 105.954 32.2724C105.745 32.4117 105.499 32.486 105.249 32.486C104.998 32.486 104.752 32.4117 104.544 32.2724C104.335 32.1331 104.172 31.9351 104.076 31.7033C103.979 31.4716 103.954 31.2165 104.003 30.9703C104.051 30.7241 104.171 30.4978 104.349 30.32C104.467 30.2015 104.607 30.1074 104.761 30.0433C104.916 29.9791 105.081 29.946 105.249 29.946C105.416 29.946 105.581 29.9791 105.736 30.0433C105.89 30.1074 106.031 30.2015 106.149 30.32Z" fill="#900DEF"/>
<path d="M65.1284 13.55C64.8772 13.55 64.6317 13.6245 64.4228 13.764C64.214 13.9036 64.0512 14.1019 63.9551 14.334C63.859 14.566 63.8338 14.8214 63.8828 15.0678C63.9318 15.3141 64.0528 15.5404 64.2304 15.718C64.408 15.8956 64.6343 16.0166 64.8806 16.0656C65.127 16.1146 65.3823 16.0894 65.6144 15.9933C65.8465 15.8972 66.0448 15.7344 66.1844 15.5256C66.3239 15.3167 66.3984 15.0712 66.3984 14.82C66.3984 14.4832 66.2646 14.1601 66.0264 13.922C65.7883 13.6838 65.4652 13.55 65.1284 13.55Z" fill="#900DEF"/>
<path d="M94.1876 33.03L82.7376 21.58H61.7676V21.24H82.8776L94.4276 32.79L94.1876 33.03Z" fill="#900DEF"/>
<path d="M94.268 34.14C94.9694 34.14 95.538 33.5714 95.538 32.87C95.538 32.1686 94.9694 31.6 94.268 31.6C93.5666 31.6 92.998 32.1686 92.998 32.87C92.998 33.5714 93.5666 34.14 94.268 34.14Z" fill="#900DEF"/>
<path d="M61.8384 22.68C62.5398 22.68 63.1084 22.1114 63.1084 21.41C63.1084 20.7086 62.5398 20.14 61.8384 20.14C61.137 20.14 60.5684 20.7086 60.5684 21.41C60.5684 22.1114 61.137 22.68 61.8384 22.68Z" fill="#900DEF"/>
<path d="M-28.4123 81.5099L-28.6523 81.2699L-4.19234 56.8199H60.0177V57.1499H-4.05234L-28.4123 81.5099Z" fill="#900DEF"/>
<path d="M59.9985 55.7C60.2497 55.7 60.4952 55.7744 60.7041 55.914C60.9129 56.0535 61.0757 56.2519 61.1718 56.4839C61.268 56.716 61.2931 56.9714 61.2441 57.2177C61.1951 57.4641 61.0742 57.6904 60.8965 57.868C60.7189 58.0456 60.4926 58.1665 60.2463 58.2155C59.9999 58.2645 59.7446 58.2394 59.5125 58.1433C59.2804 58.0472 59.0821 57.8844 58.9425 57.6755C58.803 57.4667 58.7285 57.2211 58.7285 56.97C58.7285 56.8032 58.7614 56.638 58.8252 56.4839C58.889 56.3299 58.9826 56.1899 59.1005 56.0719C59.2184 55.954 59.3584 55.8605 59.5125 55.7966C59.6666 55.7328 59.8317 55.7 59.9985 55.7Z" fill="#900DEF"/>
<path d="M112.648 70.61H102.348L72.278 40.54H-21.042V40.2H72.418L102.488 70.2699H112.508L124.308 58.4599H156.718L166.248 48.93L166.488 49.1699L156.858 58.8H124.448L112.648 70.61Z" fill="#900DEF"/>
<path d="M165.419 48.19C165.659 47.9555 165.982 47.8242 166.319 47.8242C166.655 47.8242 166.978 47.9555 167.219 48.19C167.457 48.4287 167.591 48.7525 167.591 49.09C167.591 49.4276 167.457 49.7513 167.219 49.99C166.98 50.2287 166.656 50.3628 166.319 50.3628C165.981 50.3628 165.657 50.2287 165.419 49.99C165.184 49.7492 165.053 49.4263 165.053 49.09C165.053 48.7538 165.184 48.4309 165.419 48.19Z" fill="#900DEF"/>
<path d="M111.688 61.41H100.698L71.6576 32.37H-25.9824V32.03H71.7976L100.838 61.07H111.548L119.918 52.7H154.248L162.948 43.99L163.188 44.23L154.378 53.03H120.058L111.688 61.41Z" fill="#900DEF"/>
<path d="M162.128 43.25C162.37 43.0259 162.688 42.9042 163.018 42.9108C163.347 42.9173 163.661 43.0515 163.893 43.285C164.125 43.5185 164.258 43.8331 164.262 44.1624C164.267 44.4917 164.144 44.8099 163.918 45.05C163.805 45.1744 163.668 45.275 163.515 45.3459C163.362 45.4169 163.197 45.4567 163.029 45.4632C162.86 45.4696 162.692 45.4425 162.535 45.3835C162.377 45.3244 162.233 45.2346 162.11 45.1192C161.987 45.0038 161.889 44.8652 161.82 44.7114C161.751 44.5576 161.714 44.3917 161.71 44.2233C161.706 44.0549 161.736 43.8875 161.798 43.7307C161.859 43.5739 161.951 43.4309 162.068 43.31L162.128 43.25Z" fill="#900DEF"/>
<path d="M111.078 49.66L110.838 49.42L122.118 38.14H157.228V38.48H122.258L111.078 49.66Z" fill="#900DEF"/>
<path d="M157.158 37.09C157.409 37.09 157.654 37.1645 157.863 37.304C158.072 37.4436 158.235 37.6419 158.331 37.874C158.427 38.106 158.452 38.3614 158.403 38.6077C158.354 38.8541 158.233 39.0804 158.056 39.258C157.878 39.4356 157.652 39.5566 157.405 39.6056C157.159 39.6546 156.904 39.6294 156.672 39.5333C156.44 39.4372 156.241 39.2744 156.102 39.0655C155.962 38.8567 155.888 38.6112 155.888 38.36C155.888 38.0231 156.022 37.7001 156.26 37.4619C156.498 37.2238 156.821 37.09 157.158 37.09Z" fill="#900DEF"/>
<path d="M110.999 50.77C111.7 50.77 112.269 50.2014 112.269 49.5C112.269 48.7986 111.7 48.23 110.999 48.23C110.297 48.23 109.729 48.7986 109.729 49.5C109.729 50.2014 110.297 50.77 110.999 50.77Z" fill="#900DEF"/>
<path d="M187.018 59.4399L204.508 76.9399H264.648L282.628 94.9199H306.788L316.468 85.2399H389.678V85.5799H316.608L306.928 95.2599H282.488L264.508 77.2699H204.368L186.778 59.6799L187.018 59.4399Z" fill="#900DEF"/>
<path d="M185.998 60.5C185.811 60.3263 185.681 60.1003 185.624 59.8516C185.568 59.6028 185.588 59.3428 185.681 59.1054C185.774 58.868 185.937 58.6642 186.148 58.5206C186.359 58.377 186.608 58.3002 186.863 58.3002C187.118 58.3002 187.367 58.377 187.578 58.5206C187.789 58.6642 187.951 58.868 188.045 59.1054C188.138 59.3428 188.158 59.6028 188.101 59.8516C188.045 60.1003 187.915 60.3263 187.728 60.5C187.494 60.7209 187.184 60.8439 186.863 60.8439C186.541 60.8439 186.232 60.7209 185.998 60.5Z" fill="#900DEF"/>
<path d="M189.208 51.22L206.288 68.3H263.548L282.698 87.45H300.198L314.238 73.42H369.358V73.75H314.378L300.338 87.79H282.558L263.408 68.64H206.158L188.968 51.46L189.208 51.22Z" fill="#900DEF"/>
<path d="M189.998 50.48C189.757 50.2454 189.434 50.1141 189.098 50.1141C188.762 50.1141 188.439 50.2454 188.198 50.48C188.08 50.5982 187.986 50.7385 187.922 50.8929C187.858 51.0473 187.825 51.2128 187.825 51.38C187.825 51.5471 187.858 51.7126 187.922 51.8671C187.986 52.0215 188.08 52.1618 188.198 52.28C188.316 52.3982 188.456 52.4919 188.611 52.5559C188.765 52.6198 188.931 52.6528 189.098 52.6528C189.265 52.6528 189.431 52.6198 189.585 52.5559C189.739 52.4919 189.88 52.3982 189.998 52.28C190.233 52.0391 190.364 51.7162 190.364 51.38C190.364 51.0437 190.233 50.7208 189.998 50.48Z" fill="#900DEF"/>
<path d="M237.458 -16H262.328L291.158 12.83H350.608L364.948 -1.51L365.188 -1.27L350.748 13.17H291.018L262.188 -15.66H237.598L223.458 -1.52H197.958V-1.86H223.318L237.458 -16Z" fill="#900DEF"/>
<path d="M189.208 41.0601L207.528 59.3801H259.148L276.448 76.6801H305.138L320.108 61.7101H382.168L400.518 80.0601L400.278 80.3001L382.028 62.0501H320.248L305.288 77.0101H276.308L259.008 59.7201H207.388L188.968 41.3001L189.208 41.0601Z" fill="#900DEF"/>
<path d="M188.238 42.09C188.12 41.972 188.026 41.8318 187.961 41.6773C187.897 41.5229 187.864 41.3573 187.864 41.19C187.864 41.0228 187.897 40.8572 187.961 40.7027C188.026 40.5483 188.12 40.408 188.238 40.29C188.416 40.113 188.642 39.9926 188.889 39.944C189.135 39.8955 189.39 39.921 189.622 40.0173C189.853 40.1135 190.051 40.2763 190.191 40.485C190.33 40.6938 190.404 40.9391 190.404 41.19C190.404 41.441 190.33 41.6863 190.191 41.895C190.051 42.1038 189.853 42.2665 189.622 42.3628C189.39 42.4591 189.135 42.4846 188.889 42.4361C188.642 42.3875 188.416 42.2671 188.238 42.09Z" fill="#900DEF"/>
<path d="M196.898 37.49L211.788 52.38H258.058L276.108 70.43H304.048L326.788 47.68L327.028 47.92L304.188 70.77H275.968L257.918 52.71H211.648L196.658 37.73L196.898 37.49Z" fill="#900DEF"/>
<path d="M195.929 38.55C195.752 38.3721 195.631 38.1458 195.583 37.8996C195.534 37.6534 195.56 37.3983 195.656 37.1666C195.752 36.9349 195.915 36.7369 196.124 36.5976C196.332 36.4583 196.578 36.3839 196.829 36.3839C197.08 36.3839 197.325 36.4583 197.534 36.5976C197.742 36.7369 197.905 36.9349 198.001 37.1666C198.098 37.3983 198.123 37.6534 198.075 37.8996C198.026 38.1458 197.906 38.3721 197.729 38.55C197.611 38.6685 197.47 38.7625 197.316 38.8267C197.161 38.8909 196.996 38.9239 196.829 38.9239C196.661 38.9239 196.496 38.8909 196.341 38.8267C196.187 38.7625 196.047 38.6685 195.929 38.55Z" fill="#900DEF"/>
<path d="M247.208 -7.34998H264.528L297.538 25.66H385.168V26H297.398L264.388 -7.00998H247.348L234.988 5.35003H201.488L187.018 19.82L186.778 19.58L201.348 5.01003H234.848L247.208 -7.34998Z" fill="#900DEF"/>
<path d="M187.838 20.55C187.66 20.7271 187.434 20.8475 187.188 20.896C186.941 20.9446 186.686 20.9191 186.455 20.8228C186.223 20.7265 186.025 20.5637 185.886 20.355C185.746 20.1463 185.672 19.9009 185.672 19.65C185.672 19.3991 185.746 19.1537 185.886 18.945C186.025 18.7363 186.223 18.5735 186.455 18.4772C186.686 18.3809 186.941 18.3555 187.188 18.404C187.434 18.4526 187.66 18.573 187.838 18.75C187.956 18.868 188.05 19.0083 188.115 19.1627C188.179 19.3172 188.212 19.4828 188.212 19.65C188.212 19.8173 188.179 19.9829 188.115 20.1373C188.05 20.2918 187.956 20.432 187.838 20.55Z" fill="#900DEF"/>
<path d="M263.679 32.1899H275.449V32.5299H263.819L253.109 43.2399H213.059V42.8999H252.969L263.679 32.1899Z" fill="#900DEF"/>
<path d="M213.118 44.34C213.819 44.34 214.388 43.7715 214.388 43.07C214.388 42.3686 213.819 41.8 213.118 41.8C212.416 41.8 211.848 42.3686 211.848 43.07C211.848 43.7715 212.416 44.34 213.118 44.34Z" fill="#900DEF"/>
<path d="M275.388 33.63C276.09 33.63 276.658 33.0614 276.658 32.36C276.658 31.6586 276.09 31.09 275.388 31.09C274.687 31.09 274.118 31.6586 274.118 32.36C274.118 33.0614 274.687 33.63 275.388 33.63Z" fill="#900DEF"/>
<path d="M264.448 42.71L280.848 59.1H304.558V59.44H280.708L264.208 42.95L264.448 42.71Z" fill="#900DEF"/>
<path d="M263.478 43.7701C263.301 43.5922 263.181 43.3659 263.132 43.1197C263.084 42.8735 263.109 42.6184 263.206 42.3867C263.302 42.155 263.465 41.957 263.673 41.8176C263.882 41.6783 264.127 41.604 264.378 41.604C264.629 41.604 264.875 41.6783 265.083 41.8176C265.292 41.957 265.455 42.155 265.551 42.3867C265.647 42.6184 265.673 42.8735 265.624 43.1197C265.576 43.3659 265.455 43.5922 265.278 43.7701C265.16 43.8886 265.02 43.9826 264.866 44.0468C264.711 44.111 264.546 44.144 264.378 44.144C264.211 44.144 264.046 44.111 263.891 44.0468C263.737 43.9826 263.596 43.8886 263.478 43.7701Z" fill="#900DEF"/>
<path d="M275.427 41.0601L286.888 52.5101H307.848V52.8501H286.747L275.188 41.3001L275.427 41.0601Z" fill="#900DEF"/>
<path d="M275.358 42.49C276.059 42.49 276.628 41.9214 276.628 41.22C276.628 40.5185 276.059 39.95 275.358 39.95C274.656 39.95 274.088 40.5185 274.088 41.22C274.088 41.9214 274.656 42.49 275.358 42.49Z" fill="#900DEF"/>
<path d="M283.558 -9.07001L298.308 5.67999H345.628V6.01999H298.168L283.318 -8.83001L283.558 -9.07001Z" fill="#900DEF"/>
<path d="M256.978 3.47998H267.278L297.348 33.55H390.668V33.89H297.198L267.138 3.81998H257.118L245.308 15.63H212.908L203.378 25.16L203.138 24.92L212.768 15.29H245.168L256.978 3.47998Z" fill="#900DEF"/>
<path d="M204.198 25.89C204.02 26.0671 203.794 26.1875 203.548 26.236C203.302 26.2846 203.047 26.2591 202.815 26.1628C202.583 26.0665 202.385 25.9038 202.246 25.695C202.107 25.4863 202.032 25.241 202.032 24.99C202.032 24.7391 202.107 24.4938 202.246 24.285C202.385 24.0763 202.583 23.9135 202.815 23.8172C203.047 23.721 203.302 23.6955 203.548 23.744C203.794 23.7926 204.02 23.913 204.198 24.09C204.317 24.208 204.411 24.3483 204.475 24.5027C204.539 24.6572 204.572 24.8228 204.572 24.99C204.572 25.1573 204.539 25.3229 204.475 25.4773C204.411 25.6318 204.317 25.772 204.198 25.89Z" fill="#900DEF"/>
<path d="M257.938 12.68H268.928L297.958 41.72H395.608V42.06H297.818L268.788 13.02H258.078L249.698 21.39H215.378L206.668 30.1L206.428 29.86L215.238 21.06H249.558L257.938 12.68Z" fill="#900DEF"/>
<path d="M207.498 30.84C207.257 31.0746 206.934 31.2058 206.598 31.2058C206.262 31.2058 205.939 31.0746 205.698 30.84C205.459 30.6013 205.325 30.2776 205.325 29.94C205.325 29.6025 205.459 29.2787 205.698 29.04C205.937 28.8013 206.26 28.6672 206.598 28.6672C206.936 28.6672 207.259 28.8013 207.498 29.04C207.733 29.2809 207.864 29.6038 207.864 29.94C207.864 30.2762 207.733 30.5992 207.498 30.84Z" fill="#900DEF"/>
<path d="M258.548 24.43L258.788 24.67L247.508 35.95H212.398V35.61H247.368L258.548 24.43Z" fill="#900DEF"/>
<path d="M212.458 37.05C213.159 37.05 213.727 36.4814 213.727 35.78C213.727 35.0786 213.159 34.51 212.458 34.51C211.756 34.51 211.188 35.0786 211.188 35.78C211.188 36.4814 211.756 37.05 212.458 37.05Z" fill="#900DEF"/>
<path d="M259.518 25.49C259.695 25.3122 259.815 25.0859 259.864 24.8397C259.912 24.5935 259.887 24.3384 259.79 24.1067C259.694 23.8749 259.531 23.6769 259.323 23.5376C259.114 23.3983 258.869 23.324 258.618 23.324C258.367 23.324 258.121 23.3983 257.913 23.5376C257.704 23.6769 257.541 23.8749 257.445 24.1067C257.349 24.3384 257.323 24.5935 257.372 24.8397C257.42 25.0859 257.541 25.3122 257.718 25.49C257.836 25.6085 257.976 25.7026 258.13 25.7668C258.285 25.8309 258.45 25.864 258.618 25.864C258.785 25.864 258.951 25.8309 259.105 25.7668C259.259 25.7026 259.4 25.6085 259.518 25.49Z" fill="#900DEF"/>
</g>
<defs>
<clipPath id="clip0_264_1266">
<rect width="300" height="64.6154" fill="white"/>
</clipPath>
</defs>
</svg>
